<svg xmlns="http://www.w3.org/2000/svg" xmlns:xlink="http://www.w3.org/1999/xlink" id="Layer_1" x="0" y="0" version="1.1" viewBox="0 0 425 425" style="enable-background:new 0 0 425 425" xml:space="preserve"><style type="text/css">.st0{opacity:5.000000e-02;fill:#0da6a1;enable-background:new}.st1{opacity:.6;fill:url(#SVGID_1_)}.st2,.st3{fill-rule:evenodd;clip-rule:evenodd;fill:#6d6e70}.st3{fill:#464646}.st4{enable-background:new}.st5{fill:#6d6d6d}.st6{fill:gray}.st7{fill:#545454}.st8{clip-path:url(#SVGID_3_);enable-background:new}.st9{fill:#7b7b7b}.st10{fill:#757575}.st11{fill:#6f6f6f}</style><circle cx="212" cy="212" r="207.5" class="st0"/><g><linearGradient id="SVGID_1_" x1="269.66" x2="253.106" y1="175.914" y2="219.038" gradientUnits="userSpaceOnUse"><stop offset="0" style="stop-color:#fff;stop-opacity:.3"/><stop offset=".081" style="stop-color:#d0d0d0;stop-opacity:.3614"/><stop offset=".185" style="stop-color:#999;stop-opacity:.4406"/><stop offset=".29" style="stop-color:#6a6a6a;stop-opacity:.5207"/><stop offset=".394" style="stop-color:#444;stop-opacity:.6"/><stop offset=".496" style="stop-color:#262626;stop-opacity:.6781"/><stop offset=".597" style="stop-color:#111;stop-opacity:.7548"/><stop offset=".695" style="stop-color:#040404;stop-opacity:.8295"/><stop offset=".788" style="stop-color:#000;stop-opacity:.9"/><stop offset=".865" style="stop-color:#000"/></linearGradient><polygon points="228.5 218.2 311.9 199.4 287.2 191.4 206.1 208" class="st1"/><g><g><g><g><path d="M338.1,237.1c0.9,1.7,1.4,3.5,1.4,5.3c0,19.7-57.2,35.6-127.8,35.6C141.2,278,84,262,84,242.4 c0-1,0.1-2,0.4-2.9c14.8,15.2,65.5,26.5,125.9,26.5C273.7,265.9,326.5,253.5,338.1,237.1z" class="st2"/></g></g></g><path d="M342.8,220.4c0,19.8-58.6,35.8-130.8,35.8s-130.8-16-130.8-35.8s58.6-35.8,130.8-35.8 S342.8,200.6,342.8,220.4z M213.2,185.5c-60.9,0-110.2,13.2-110.2,29.5s49.4,29.5,110.2,29.5s110.2-13.2,110.2-29.5 S274,185.5,213.2,185.5z" class="st3"/></g><g><g><g class="st4"><g><polygon points="226.2 123.3 218.3 119.1 272.9 112.4 280.7 116.6" class="st5"/></g><g><polygon points="206 220.8 198.1 216.6 195.7 144.5 203.6 148.7" class="st6"/></g><g><path d="M280.7,116.6l0.7,21.4l-54.5,6.7c-0.7,0.1-1.2,0.6-1.1,1.3l2.4,72.1l-22.2,2.7l-2.4-72.1 c-0.4-12.4,9.8-23.8,22.6-25.4L280.7,116.6z" class="st7"/></g><g class="st4"><defs><path id="SVGID_2_" d="M203.6,148.7l-7.9-4.2c-0.4-12.4,9.8-23.8,22.6-25.4l7.9,4.2 C213.4,124.9,203.2,136.3,203.6,148.7z" class="st4"/></defs><clipPath id="SVGID_3_"><use xlink:href="#SVGID_2_" style="overflow:visible"/></clipPath><g class="st8"><path d="M203.6,148.7l-7.9-4.2c-0.2-6.4,2.4-12.5,6.7-17.1l7.9,4.2C206,136.2,203.4,142.3,203.6,148.7" class="st9"/><path d="M210.3,131.5l-7.9-4.2c2.2-2.4,4.9-4.4,7.9-5.9l7.9,4.2C215.2,127.1,212.5,129.1,210.3,131.5" class="st10"/><path d="M218.2,125.7l-7.9-4.2c2.5-1.2,5.2-2,8-2.4l7.9,4.2C223.4,123.6,220.7,124.4,218.2,125.7" class="st11"/></g></g></g></g></g></g></svg>